<svg width="19" height="15" viewBox="0 0 19 15" fill="none" xmlns="http://www.w3.org/2000/svg">
<path d="M17.3314 5.8207L18.0522 6.54179L18.773 5.8207L18.0522 5.09962L17.3314 5.8207ZM0 13.9801C0 14.2506 0.10741 14.51 0.298603 14.7013C0.489793 14.8926 0.749106 15 1.01949 15C1.28988 15 1.54919 14.8926 1.74038 14.7013C1.93158 14.51 2.03899 14.2506 2.03899 13.9801H0ZM12.9547 11.6414L18.0522 6.54179L16.6106 5.09962L11.5131 10.1992L12.9547 11.6414ZM18.0522 5.09962L12.9547 0L11.5131 1.44217L16.6106 6.54179L18.0522 5.09962ZM17.3314 4.80078H7.13646V6.84062H17.3314V4.80078ZM0 11.9402V13.9801H2.03899V11.9402H0ZM7.13646 4.80078C5.24375 4.80078 3.42856 5.55297 2.09022 6.89188C0.751874 8.23079 0 10.0467 0 11.9402H2.03899C2.03899 10.5877 2.57604 9.29063 3.532 8.33427C4.48796 7.3779 5.78452 6.84062 7.13646 6.84062V4.80078Z" fill="#4ECB71"/>
</svg>
