<svg width="22" height="22" viewBox="0 0 22 22" fill="none" xmlns="http://www.w3.org/2000/svg">
<path d="M18.024 11C18.024 15.3459 14.6489 18.8 10.5688 18.8C6.48871 18.8 3.11362 15.3459 3.11362 11C3.11362 6.65414 6.48871 3.20001 10.5688 3.20001C14.6489 3.20001 18.024 6.65414 18.024 11Z" stroke="#ABABAB" stroke-width="2"/>
<path d="M9.45505 1L11.6826 1L11.6826 3.4H9.45505L9.45505 1Z" stroke="#ABABAB" stroke-width="2"/>
<path d="M20.1378 9.79999L20.1378 12.2L18.9671 12.2L18.9671 9.79999L20.1378 9.79999Z" stroke="#ABABAB" stroke-width="2"/>
<path d="M2.17068 9.79999L2.17068 12.2L0.999992 12.2L0.999992 9.79999L2.17068 9.79999Z" stroke="#ABABAB" stroke-width="2"/>
<path d="M16.5474 3.1083L18.1511 4.77737L17.0591 5.91392L15.4554 4.24484L16.5474 3.1083Z" stroke="#ABABAB" stroke-width="2"/>
<path d="M4.17908 15.9812L5.78276 17.6503L4.59011 18.8916L2.98643 17.2225L4.17908 15.9812Z" stroke="#ABABAB" stroke-width="2"/>
<path d="M9.45505 18.6H11.6826L11.6826 21L9.45505 21L9.45505 18.6Z" stroke="#ABABAB" stroke-width="2"/>
<path d="M2.98642 4.77759L4.59009 3.10851L5.71961 4.28408L4.11593 5.95316L2.98642 4.77759Z" stroke="#ABABAB" stroke-width="2"/>
<path d="M15.2915 17.5844L16.8951 15.9153L18.1512 17.2226L16.5475 18.8917L15.2915 17.5844Z" stroke="#ABABAB" stroke-width="2"/>
</svg>
