<svg width="32" height="32" viewBox="0 0 32 32" fill="none" xmlns="http://www.w3.org/2000/svg">
<path d="M8.29289 26.2929C7.90237 26.6834 7.90237 27.3166 8.29289 27.7071C8.68342 28.0976 9.31658 28.0976 9.70711 27.7071L16 21.4142L22.2929 27.7071C22.6834 28.0976 23.3166 28.0976 23.7071 27.7071C24.0976 27.3166 24.0976 26.6834 23.7071 26.2929L17.4142 20L23.7071 13.7071C24.0976 13.3166 24.0976 12.6834 23.7071 12.2929C23.3166 11.9024 22.6834 11.9024 22.2929 12.2929L16 18.5858L9.70711 12.2929C9.31658 11.9024 8.68342 11.9024 8.29289 12.2929C7.90237 12.6834 7.90237 13.3166 8.29289 13.7071L14.5858 20L8.29289 26.2929Z" fill="#6148FF"/>
</svg>
