<svg width="22" height="22" viewBox="0 0 22 22" fill="none" xmlns="http://www.w3.org/2000/svg">
<path d="M17.9472 11C17.9472 15.3498 14.5836 18.8 10.5261 18.8C6.46865 18.8 3.10511 15.3498 3.10511 11C3.10511 6.65026 6.46865 3.20002 10.5261 3.20002C14.5836 3.20002 17.9472 6.65026 17.9472 11Z" stroke="#2051E5" stroke-width="2"/>
<path d="M9.42091 1L11.6314 1L11.6314 3.4H9.42092L9.42091 1Z" stroke="#2051E5" stroke-width="2"/>
<path d="M20.0525 9.8L20.0525 12.2L18.8946 12.2L18.8946 9.80001L20.0525 9.8Z" stroke="#2051E5" stroke-width="2"/>
<path d="M2.15784 9.8L2.15784 12.2L0.99995 12.2L0.999951 9.80001L2.15784 9.8Z" stroke="#2051E5" stroke-width="2"/>
<path d="M16.4806 3.11113L18.0751 4.77741L16.9902 5.91116L15.3957 4.24488L16.4806 3.11113Z" stroke="#2051E5" stroke-width="2"/>
<path d="M4.16212 15.984L5.75664 17.6503L4.57149 18.8888L2.97696 17.2225L4.16212 15.984Z" stroke="#2051E5" stroke-width="2"/>
<path d="M9.42091 18.6H11.6314L11.6314 21L9.42092 21L9.42091 18.6Z" stroke="#2051E5" stroke-width="2"/>
<path d="M2.977 4.77759L4.57153 3.11131L5.6938 4.28409L4.09928 5.95037L2.977 4.77759Z" stroke="#2051E5" stroke-width="2"/>
<path d="M15.2323 17.5844L16.8268 15.9182L18.0751 17.2226L16.4806 18.8889L15.2323 17.5844Z" stroke="#2051E5" stroke-width="2"/>
</svg>
