<svg width="29" height="25" viewBox="0 0 29 25" fill="none" xmlns="http://www.w3.org/2000/svg">
<path d="M10.9878 21.6389V18.4538C10.9878 17.6407 11.7545 16.9816 12.7003 16.9816H16.1575C16.6116 16.9816 17.0472 17.1367 17.3684 17.4128C17.6895 17.6889 17.8699 18.0633 17.8699 18.4538V21.6389C17.8671 21.9769 18.0212 22.302 18.2983 22.5419C18.5753 22.7818 18.9522 22.9167 19.3454 22.9167H21.7041C22.8057 22.9191 23.8631 22.5446 24.6431 21.8758C25.423 21.2071 25.8614 20.2989 25.8614 19.3519V10.278C25.8614 9.51298 25.4669 8.78734 24.7844 8.29654L16.7606 2.78737C15.3649 1.82142 13.365 1.85261 12.011 2.86144L4.17031 8.29654C3.45549 8.77287 3.02825 9.50067 3.00713 10.278V19.3426C3.00713 21.3165 4.86841 22.9167 7.16441 22.9167H9.46922C10.2859 22.9167 10.9496 22.3502 10.9555 21.6482L10.9878 21.6389Z" fill="#ABABAB"/>
</svg>
