<svg width="276" height="133" viewBox="0 0 276 133" fill="none" xmlns="http://www.w3.org/2000/svg">
<path d="M5.09407 92.5525C15.3371 81.456 24.025 66.2772 24.8383 50.8232C24.9858 48.0208 25.9594 44.6082 22.5553 44.6082C16.5348 44.6082 20.6695 62.2758 21.0332 65.3672C23.0012 82.0945 21.1912 99.0597 21.9211 115.848C22.0464 118.73 22.0015 125.405 25.8108 126.46C30.2912 127.701 33.9182 121.703 35.3658 118.554C39.6895 109.15 40.0595 97.7856 40.5238 87.6482C41.1254 74.5152 40.3686 61.5085 38.9595 48.4556C37.7806 37.535 37.8478 26.4895 36.5496 15.6048C36.0712 11.5932 35.4327 5.95313 32.8713 2.5829C28.4717 -3.2061 29.442 16.1654 29.4468 16.8732C29.6708 50.483 38.0889 84.6787 31.8144 118.174C31.155 121.693 29.9897 125.69 28.2629 128.912C27.6905 129.98 25.2189 132.111 25.2189 130.9C25.2189 118.156 36.006 102.979 42.0459 92.8062C55.3729 70.3607 70.4076 49.0842 84.8322 27.3584C85.4705 26.397 87.1625 23.383 86.4811 24.3143C82.115 30.2812 78.9553 37.3122 75.4463 43.7626C65.7675 61.5545 55.6741 79.7879 40.0588 93.1444C35.8866 96.7131 23.5474 106.683 22.1748 95.4275C21.1723 87.2074 23.8659 79.2776 23.8659 71.1594C23.8659 66.3136 16.3753 73.7706 16.4248 75.049C16.6493 80.8469 25.6775 82.3884 31.1379 84.3504C36.7529 86.3679 42.5027 88.0264 48.3032 89.4239C63.7528 93.1461 54.9553 88.9918 46.5275 84.8578C35.2775 79.3395 18.7074 73.0238 8.18044 65.5363C5.48043 63.6158 2.10128 61.4033 1.54264 58.1375C1.14741 55.8269 3.9683 53.8835 5.98193 52.6835C9.73543 50.4465 14.0179 49.0994 18.2851 48.1596C33.3255 44.8471 60.4165 43.1978 74.347 42.8325C115.432 41.755 156.992 43.4403 197.717 49.132C218.36 52.017 231.787 54.7143 250.862 61.0124C255.655 62.5952 260.365 64.46 264.941 66.5932C286.5 76.6457 262.336 66.044 274.496 73.527" stroke="black" stroke-width="3" stroke-linecap="round"/>
</svg>
