<svg width="19" height="15" viewBox="0 0 19 15" fill="none" xmlns="http://www.w3.org/2000/svg">
<path d="M1.44217 5.8207L0.721085 6.54178L0 5.8207L0.721085 5.09961L1.44217 5.8207ZM18.7809 13.9801C18.7809 14.2506 18.6734 14.51 18.4821 14.7013C18.2909 14.8925 18.0314 15 17.7609 15C17.4904 15 17.231 14.8925 17.0397 14.7013C16.8485 14.51 16.741 14.2506 16.741 13.9801H18.7809ZM5.8207 11.6414L0.721085 6.54178L2.16326 5.09961L7.26287 10.1992L5.8207 11.6414ZM0.721085 5.09961L5.8207 0L7.26287 1.44217L2.16326 6.54178L0.721085 5.09961ZM1.44217 4.80077H11.6414V6.84062H1.44217V4.80077ZM18.7809 11.9402V13.9801H16.741V11.9402H18.7809ZM11.6414 4.80077C13.5349 4.80077 15.3508 5.55297 16.6898 6.89187C18.0287 8.23078 18.7809 10.0467 18.7809 11.9402H16.741C16.741 10.5877 16.2037 9.29062 15.2474 8.33426C14.291 7.3779 12.9939 6.84062 11.6414 6.84062V4.80077Z" fill="#4ECB71"/>
</svg>
