<svg width="23" height="21" viewBox="0 0 23 21" fill="none" xmlns="http://www.w3.org/2000/svg">
<path fill-rule="evenodd" clip-rule="evenodd" d="M11.0275 0C10.5753 0 10.1415 0.158036 9.82166 0.439342C9.50184 0.720649 9.32217 1.10218 9.32217 1.50001V1.65001C7.39648 1.99633 5.66584 2.91696 4.42288 4.25622C3.17993 5.59549 2.50092 7.27122 2.50068 9.00006V15.0001L0.445709 16.9921C-0.548523 17.9566 0.229127 19.5001 1.70768 19.5001H8.07384C8.37321 19.9561 8.80377 20.3348 9.32225 20.5981C9.84073 20.8614 10.4289 21 11.0275 21C11.6262 21 12.2144 20.8614 12.7328 20.5981C13.2513 20.3348 13.6819 19.9561 13.9812 19.5001H20.3474C21.826 19.5001 22.6036 17.9551 21.6094 16.9921L19.5544 15.0001V9.00006C19.5542 7.27122 18.8752 5.59549 17.6322 4.25622C16.3892 2.91696 14.6586 1.99633 12.7329 1.65001V1.50001C12.7329 1.10218 12.5532 0.720649 12.2334 0.439342C11.9136 0.158036 11.4798 0 11.0275 0ZM5.05874 15.8701L4.39365 16.5121L3.63305 17.2501H18.422L17.6597 16.5121L16.9963 15.8686V9.00006C16.9963 8.31061 16.842 7.62792 16.542 6.99096C16.242 6.35399 15.8024 5.77523 15.2481 5.28772C14.6939 4.80021 14.0359 4.4135 13.3117 4.14966C12.5875 3.88582 11.8114 3.75002 11.0275 3.75002C10.2437 3.75002 9.46755 3.88582 8.74338 4.14966C8.01921 4.4135 7.36122 4.80021 6.80696 5.28772C6.25271 5.77523 5.81305 6.35399 5.51309 6.99096C5.21313 7.62792 5.05874 8.31061 5.05874 9.00006V15.8701Z" fill="#ABABAB"/>
</svg>
