<svg width="20" height="20" viewBox="0 0 20 20" fill="none" xmlns="http://www.w3.org/2000/svg">
<g clip-path="url(#clip0_1_222)">
<path fill-rule="evenodd" clip-rule="evenodd" d="M1.66666 2.49999C1.66666 2.03975 2.03975 1.66666 2.49999 1.66666H17.5C17.9602 1.66666 18.3333 2.03975 18.3333 2.49999V4.65481C18.3333 5.09684 18.1577 5.52076 17.8452 5.83332L12.5 11.1785V15.8333C12.5 16.149 12.3217 16.4375 12.0393 16.5787L8.706 18.2453C8.44768 18.3745 8.14089 18.3607 7.89521 18.2089C7.64953 18.057 7.49999 17.7888 7.49999 17.5V11.1785L2.15481 5.83332C1.84225 5.52076 1.66666 5.09684 1.66666 4.65481V2.49999ZM3.33332 3.33332V4.65481L8.92258 10.2441C9.07886 10.4003 9.16666 10.6123 9.16666 10.8333V16.1516L10.8333 15.3183V10.8333C10.8333 10.6123 10.9211 10.4003 11.0774 10.2441L16.6667 4.65481V3.33332H3.33332Z" fill="#2051E5"/>
</g>
<defs>
<clipPath id="clip0_1_222">
<rect width="16.6667" height="16.6667" fill="white" transform="translate(1.66666 1.66666)"/>
</clipPath>
</defs>
</svg>
